# AST/ASF file generated using VICON BodyLanguage
# -----------------------------------------------
:version 1.10
:name VICON
:units
  mass 1.0
  length 0.45
  angle deg
:documentation
   .ast/.asf automatically generated from VICON data using
   VICON BodyBuilder and BodyLanguage model FoxedUp or BRILLIANT.MOD
:root
   order TX TY TZ RX RY RZ
   axis XYZ
   position 0 0 0  
   orientation 0 0 0 
:bonedata
  begin
     id 1 
     name lhipjoint
     direction 0.734343 -0.627749 0.258209 
     length 2.5437 
     axis 0 0 0  XYZ
  end
  begin
     id 2 
     name lfemur
     direction 0.34202 -0.939693 0  
     length 6.7391  
     axis 0 0 20  XYZ
    dof rx ry rz
    limits (-160.0 20.0)
           (-70.0 70.0)
           (-60.0 70.0)
  end
  begin
     id 3 
     name ltibia
     direction 0.34202 -0.939693 0   
     length 7.21536   
     axis 0 0 20   XYZ
    dof rx
    limits (-10.0 170.0)
  end
  begin
     id 4 
     name lfoot
     direction 0.0489572 -0.134509 0.989702   
     length 1.61313   
     axis -90 7.62852e-016 20   XYZ
    dof rx rz
    limits (-45.0 90.0)
           (-70.0 20.0)
  end
  begin
     id 5 
     name ltoes
     direction 1.53451e-011 -4.21692e-011 1   
     length 0.823104   
     axis -90 7.62852e-016 20   XYZ
    dof rx
    limits (-90.0 20.0)
  end
  begin
     id 6 
     name rhipjoint
     direction -0.746398 -0.615468 0.253157   
     length 2.59446  
     axis 0 0 0  XYZ 
  end
  begin
     id 7 
     name rfemur
     direction -0.34202 -0.939693 0   
     length 6.7075   
     axis 0 0 -20   XYZ
    dof rx ry rz
    limits (-160.0 20.0)
           (-70.0 70.0)
           (-70.0 60.0)
  end
  begin
     id 8 
     name rtibia
     direction -0.34202 -0.939693 0   
     length 7.27262   
     axis 0 0 -20   XYZ
    dof rx
    limits (-10.0 170.0)
 end
 begin
     id 9 
     name rfoot
     direction -0.0455203 -0.125066 0.991104   
     length 1.91095  
     axis -90 -7.62852e-016 -20   XYZ
    dof rx rz
    limits (-45.0 90.0)
           (-20.0 70.0)
  end
  begin
     id 10 
     name rtoes
     direction -1.53601e-011 -4.21913e-011 1   
     length 0.969037   
     axis -90 -7.62852e-016 -20   XYZ
    dof rx
    limits (-90.0 20.0)
  end
  begin
     id 11 
     name lowerback
     direction 0.0181546 0.999122 -0.0377542   
     length 1.99916   
     axis 0 0 0   XYZ
    dof rx ry rz
    limits (-20.0 45.0)
           (-30.0 30.0)
           (-30.0 30.0)
  end
  begin
     id 12 
     name upperback
     direction 0.0203486 0.99589 0.0882534   
     length 1.951   
     axis 0 0 0   XYZ
    dof rx ry rz
    limits (-20.0 45.0)
           (-30.0 30.0)
           (-30.0 30.0)
  end
  begin
     id 13 
     name thorax
     direction 0.0131685 0.994241 0.106355   
     length 1.97461   
     axis 0 0 0   XYZ
    dof rx ry rz
    limits (-20.0 45.0)
           (-30.0 30.0)
           (-30.0 30.0)
  end
  begin
     id 14 
     name lowerneck
     direction -0.0281395 0.999325 0.023617   
     length 1.7959   
     axis 0 0 0   XYZ
    dof rx ry rz
    limits (-20.0 45.0)
           (-30.0 30.0)
           (-30.0 30.0)
  end
  begin
     id 15 
     name upperneck
     direction 0.0288721 0.991984 -0.123019   
     length 1.79917   
     axis 0 0 0   XYZ
    dof rx ry rz
    limits (-20.0 45.0)
           (-30.0 30.0)
           (-30.0 30.0)
  end
  begin
     id 16
     name head
     direction 0.0133797 0.998944 -0.0439492  
     length 1.80902  
     axis 0 0 0   XYZ
    dof rx ry rz
    limits (-20.0 45.0)
           (-30.0 30.0)
           (-30.0 30.0)
  end
  begin
     id 17 
     name lclavicle
     direction 0.919195 0.377107 0.113449  
     length 3.17815  
     axis 0 0 0   XYZ
    dof ry rz
    limits (-20.0 10.0)
           (0.0 20.0)
  end
  begin
     id 18 
     name lhumerus
     direction 1 -4.48959e-011 2.13129e-027   
     length 4.84137   
     axis 180 -30 -90   XYZ
    dof rx ry rz
    limits (-60.0 90.0)
           (-90.0 90.0)
           (-90.0 90.0)
  end
  begin
     id 19
     name lradius
     direction 1 -4.48957e-011 -6.30627e-028   
     length 3.2452   
     axis 180 -30 -90   XYZ
    dof rx
    limits (-10.0 170.0)
  end
  begin
     id 20
     name lwrist
     direction 1 -4.4901e-011 9.13299e-027   
     length 1.6226   
     axis -6.84618e-015 90 90   XYZ
    dof ry
    limits (-180.0 0.0)
 end
  begin
     id 21 
     name lhand
     direction 1 -4.48816e-011 1.82293e-026   
     length 0.521221   
     axis -1.16502e-014 90 90   XYZ
    dof rx rz
    limits (-90.0 90.0)
           (-45.0 45.0)
  end
  begin
     id 22 
     name lfingers
     direction 1 -4.49108e-011 3.65687e-026   
     length 0.420221   
     axis -2.33008e-014 90 90   XYZ
    dof rx
    limits (0.0 90.0)
  end
  begin
     id 23
     name lthumb
     direction 0.707107 -6.34943e-011 0.707107   
     length 0.603356   
     axis -90 45 5.69224e-014   XYZ
    dof rx rz
    limits (-45.0 45.0)
           (-45.0 45.0)
  end
  begin
     id 24 
     name rclavicle
     direction -0.90847 0.38596 0.160368   
     length 3.12973  
     axis 0 0 0   XYZ 
    dof ry rz
    limits (-10.0 20.0)
           (-20.0 0.0)
  end
  begin
     id 25 
     name rhumerus
     direction -1 -4.48974e-011 4.47268e-028  
     length 4.72284   
     axis 180 30 90   XYZ
    dof rx ry rz
    limits (-90.0 60.0)
           (-90.0 90.0)
           (-90.0 90.0)
  end
  begin
     id 26 
     name rradius
     direction -1 -4.48969e-011 3.43203e-027   
     length 3.23459   
     axis 180 30 90   XYZ
    dof rx
    limits (-10.0 170.0)
  end
  begin
     id 27 
     name rwrist
     direction -1 -4.48969e-011 9.12911e-027   
     length 1.6173   
     axis -6.84618e-015 -90 -90   XYZ
    dof ry
    limits (-180.0 0.0)
  end
  begin
     id 28
     name rhand
     direction -1 -4.49194e-011 1.83006e-026   
     length 0.307416   
     axis -1.16502e-014 -90 -90   XYZ
    dof rx rz
    limits (-90.0 90.0)
           (-45.0 45.0)
  end
  begin
     id 29
     name rfingers
     direction -1 -4.48423e-011 3.63103e-026   
     length 0.247847   
     axis -2.33008e-014 -90 -90   XYZ
    dof rx
    limits (0.0 90.0)
  end
  begin
     id 30
     name rthumb
     direction -0.707107 -6.34802e-011 0.707107   
     length 0.35586   
     axis -90 -45 -5.69224e-014   XYZ
    dof rx rz
    limits (-45.0 45.0)
           (-45.0 45.0)
  end
:hierarchy
  begin
    root lhipjoint rhipjoint lowerback
    lhipjoint lfemur
    lfemur ltibia
    ltibia lfoot
    lfoot ltoes
    rhipjoint rfemur
    rfemur rtibia
    rtibia rfoot
    rfoot rtoes
    lowerback upperback
    upperback thorax
    thorax lowerneck lclavicle rclavicle
    lowerneck upperneck
    upperneck head
    lclavicle lhumerus
    lhumerus lradius
    lradius lwrist
    lwrist lhand lthumb
    lhand lfingers
    rclavicle rhumerus
    rhumerus rradius
    rradius rwrist
    rwrist rhand rthumb
    rhand rfingers
  end

#!OML:ASF H:\Terrain\Patient Classification 1\Animal1\Tuesday\Animal1.ASF
:FULLY-SPECIFIED
:DEGREES
357
root 13.0765 16.3 -6.9145 -155.461 42.1279 -162.653
lowerback 6.99892 -0.170489 -2.42948
upperback -7.92321 -0.0781245 1.76497
thorax -12.5322 0.405573 3.2814
lowerneck -11.2033 3.93731 -1.27213
upperneck 2.77406 5.18691 12.8556
head 2.28967 3.23801 4.37623
rclavicle 3.27249e-014 -3.81667e-014
rhumerus -49.0839 -5.64186 -52.3694
rradius 13.3247
rwrist -0.140375
rhand -5.86233 15.1373
rfingers 7.12502
rthumb 19.9647 -13.8571
lclavicle 3.27249e-014 -3.81667e-014
lhumerus -55.5152 13.7662 43.5708
lradius 22.5781
lwrist -28.8983
lhand 2.49484 61.4885
lfingers 7.12502
lthumb -152.022 269.423
rfemur -38.5875 -20.8304 26.1829
rtibia 81.8714
rfoot 20.8679 -8.44953
rtoes -19.6585
lfemur -42.0013 10.097 -21.3102
ltibia 36.5642
lfoot -14.6874 27.5286
ltoes 33.3499
358
root 13.0895 16.2995 -6.98865 -155.85 41.3659 -162.891
lowerback 7.17896 -0.15105 -2.60173
upperback -7.89812 -0.0767294 1.79645
thorax -12.6167 0.424476 3.41526
lowerneck -11.1713 3.87898 -1.49192
upperneck 2.62618 5.15138 12.7475
head 2.2394 3.20373 4.37266
rclavicle -1.01877e-015 2.22639e-014
rhumerus -49.338 -7.21772 -53.3653
rradius 12.8329
rwrist 1.36258
rhand -5.63547 14.5853
rfingers 7.12502
rthumb 20.1827 -14.3863
lclavicle -1.01877e-015 2.22639e-014
lhumerus -56.867 15.3012 44.5136
lradius 22.0832
lwrist -30.0166
lhand 2.43723 61.1672
lfingers 7.12502
lthumb -152.077 269.111
rfemur -40.7751 -21.1014 26.0714
rtibia 84.2708
rfoot 19.3384 -8.98969
rtoes -17.8709
lfemur -41.8113 9.92494 -21.4755
ltibia 36.945
lfoot -15.5388 26.5289
ltoes 34.7447
359
root 13.0989 16.3054 -7.06298 -156.124 40.5898 -162.994
lowerback 7.37139 -0.10999 -2.60449
upperback -7.89825 -0.0244307 1.80596
thorax -12.7411 0.452879 3.42045
lowerneck -11.2369 3.80545 -1.53326
upperneck 2.6183 5.05648 12.5279
head 2.25805 3.14552 4.30992
rclavicle 2.07233e-014 4.13472e-014
rhumerus -49.6872 -9.291 -53.6695
rradius 12.2797
rwrist 3.59743
rhand -5.57477 14.6367
rfingers 7.12502
rthumb 20.2411 -14.3287
lclavicle 2.07233e-014 4.13472e-014
lhumerus -58.3082 16.7374 45.1515
lradius 21.8468
lwrist -30.7087
lhand 1.9457 61.0091
lfingers 7.12502
lthumb -152.547 269.028
rfemur -43.0397 -21.2488 26.0316
rtibia 86.6318
rfoot 17.9608 -8.80823
rtoes -15.4189
lfemur -41.6773 9.69795 -21.4772
ltibia 37.3375
lfoot -16.376 25.5215
ltoes 36.0874
360
root 13.1086 16.3041 -7.13995 -156.3 39.774 -162.787
lowerback 7.53194 -0.0489922 -2.29533
upperback -7.81027 0.0972069 1.85474
thorax -12.746 0.481711 3.27825
lowerneck -11.2875 3.70444 -1.51129
upperneck 2.61235 4.91734 12.2426
head 2.28076 3.06264 4.21443
rclavicle 2.8712e-014 -2.8625e-014
rhumerus -49.946 -11.2327 -53.842
rradius 11.7331
rwrist 5.96468
rhand -4.22304 15.8111
rfingers 7.12502
rthumb 21.5398 -13.0111
lclavicle 2.8712e-014 -2.8625e-014
lhumerus -59.6089 18.0866 45.607
lradius 21.4887
lwrist -30.8664
lhand 2.23131 60.7242
lfingers 7.12502
lthumb -152.274 268.7
rfemur -45.0293 -21.1688 26.0861
rtibia 88.8979
rfoot 16.6775 -8.06122
rtoes -13.5873
lfemur -41.4924 9.62211 -21.2816
ltibia 37.7739
lfoot -16.0206 25.0213
ltoes 34.8619
361
root 13.1174 16.2971 -7.21426 -156.475 38.9406 -162.6
lowerback 7.59561 -0.0394133 -2.00837
upperback -7.66814 0.150491 1.94785
thorax -12.6225 0.478869 3.20781
lowerneck -11.3608 3.64021 -1.69076
upperneck 2.46019 4.87115 12.2028
head 2.247 3.033 4.22849
rclavicle 4.51241e-014 -2.54444e-014
rhumerus -49.6921 -11.8725 -55.0201
rradius 11.2475
rwrist 6.82098
rhand -2.52902 17.2965
rfingers 7.12502
rthumb 23.1659 -11.3305
lclavicle 4.51241e-014 -2.54444e-014
lhumerus -60.8992 19.1909 46.1797
lradius 21.0871
lwrist -30.3859
lhand 2.79036 60.4077
lfingers 7.12502
lthumb -151.74 268.296
rfemur -47.1021 -21.1229 26.0514
rtibia 91.2096
rfoot 14.5474 -8.48945
rtoes -9.72686
lfemur -41.2802 9.53081 -21.0658
ltibia 38.1757
lfoot -16.5114 24.0621
ltoes 35.6513
362
root 13.1243 16.2904 -7.28604 -157 38.2189 -162.833
lowerback 7.8052 -0.0634254 -2.13883
upperback -7.50611 0.0878036 1.99357
thorax -12.5617 0.45451 3.34434
lowerneck -11.6134 3.63068 -1.89105
upperneck 2.3916 4.89195 12.2482
head 2.26013 3.04966 4.28227
rclavicle 2.8215e-014 2.70347e-014
rhumerus -49.2213 -10.5759 -57.8706
rradius 11.2064
rwrist 5.7239
rhand -5.21331 15.7975
rfingers 7.12502
rthumb 20.5885 -13.1307
lclavicle 2.8215e-014 2.70347e-014
lhumerus -62.3235 20.3103 46.414
lradius 20.7209
lwrist -29.9251
lhand 3.28071 60.0331
lfingers 7.12502
lthumb -151.271 267.843
rfemur -49.3934 -21.286 25.6274
rtibia 93.61
rfoot 12.5798 -8.31052
rtoes -7.81622
lfemur -40.8578 9.46364 -21.2593
ltibia 38.4661
lfoot -17.4609 23.0233
ltoes 37.2961
363
root 13.1308 16.2757 -7.35297 -157.603 37.5245 -162.894
lowerback 8.27151 0.00221566 -2.13692
upperback -7.33107 0.155663 2.02241
thorax -12.6536 0.480472 3.36656
lowerneck -11.6342 3.56154 -1.93962
upperneck 2.15913 4.83553 12.1405
head 2.19932 3.0112 4.25061
rclavicle 3.83437e-015 -2.54444e-014
rhumerus -49.089 -9.86412 -59.8821
rradius 11.3024
rwrist 5.99843
rhand -7.48634 13.5652
rfingers 7.12502
rthumb 18.403 -15.5843
lclavicle 3.83437e-015 -2.54444e-014
lhumerus -63.6422 21.4812 45.987
lradius 20.1633
lwrist -30.2584
lhand 3.44534 59.6283
lfingers 7.12502
lthumb -151.114 267.412
rfemur -51.583 -21.2858 25.3579
rtibia 95.9477
rfoot 11.6063 -6.69892
rtoes -11.0424
lfemur -40.2589 9.80356 -21.5256
ltibia 38.6385
lfoot -16.776 22.8011
ltoes 33.8314
364
root 13.1346 16.2627 -7.41153 -158.265 36.7639 -162.929
lowerback 8.91046 0.158326 -2.04028
upperback -7.13826 0.349581 2.00432
thorax -12.8401 0.555094 3.25979
lowerneck -11.5779 3.43092 -1.94219
upperneck 1.80485 4.70742 11.9893
head 2.09705 2.93159 4.19067
rclavicle 1.66669e-014 3.97569e-014
rhumerus -48.8935 -10.523 -60.1234
rradius 11.0609
rwrist 7.67736
rhand -1.34259 17.6239
rfingers 7.12502
rthumb 24.3038 -10.8554
lclavicle 1.66669e-014 3.97569e-014
lhumerus -64.6185 22.1026 45.8568
lradius 19.6541
lwrist -30.4664
lhand 2.74713 59.7536
lfingers 7.12502
lthumb -151.781 267.649
rfemur -53.6595 -21.327 25.2014
rtibia 98.1341
rfoot 10.8358 -4.99557
rtoes -13.1903
lfemur -39.6053 10.1614 -21.7319
ltibia 38.7326
lfoot -16.1244 22.505
ltoes 29.2576
365
root 13.1359 16.2631 -7.46532 -159.063 35.9236 -163.164
lowerback 9.62399 0.304501 -2.11179
upperback -6.91835 0.50458 2.00826
thorax -13.0407 0.62648 3.27799
lowerneck -11.8033 3.28971 -1.84533
upperneck 1.63568 4.52665 11.5604
head 2.10545 2.82603 4.03928
rclavicle 7.42461e-014 3.49861e-014
rhumerus -48.5431 -10.5701 -60.3702
rradius 11.0263
rwrist 9.05602
rhand -5.97128 14.3632
rfingers 7.12502
rthumb 19.86 -14.6421
lclavicle 7.42461e-014 3.49861e-014
lhumerus -65.5254 22.25 46.1921
lradius 19.3533
lwrist -30.2973
lhand 2.0348 60.0507
lfingers 7.12502
lthumb -152.462 268.057
rfemur -55.6475 -21.5334 24.8601
rtibia 100.159
rfoot 9.63078 -4.35673
rtoes -12.0295
lfemur -38.8679 10.0996 -21.8614
ltibia 38.8175
lfoot -17.4148 21.3523
ltoes 31.4549
366
root 13.1405 16.2632 -7.51675 -159.686 34.9944 -163.295
lowerback 10.1234 0.415421 -2.16539
upperback -6.68609 0.630793 2.09333
thorax -13.0931 0.686424 3.37784
lowerneck -12.1472 3.13113 -1.62883
upperneck 1.51183 4.30052 10.8923
head 2.1542 2.69162 3.79701
rclavicle -1.68892e-013 -5.40694e-014
rhumerus -47.402 -10.9434 -60.2161
rradius 9.60862
rwrist 7.84665
rhand -2.02538 18.6235
rfingers 7.12502
rthumb 23.649 -9.94194
lclavicle -1.68892e-013 -5.40694e-014
lhumerus -66.6349 22.735 45.7232
lradius 19.0615
lwrist -30.9656
lhand 2.39767 59.6958
lfingers 7.12502
lthumb -152.115 267.646
rfemur -57.7374 -21.6374 24.6056
rtibia 102.072
rfoot 8.37657 -4.25177
rtoes -9.67443
lfemur -38.2765 9.93656 -21.8419
ltibia 38.9293
lfoot -18.4038 20.0131
ltoes 35.0445
367
root 13.1509 16.2542 -7.56617 -160.179 33.9745 -163.392
lowerback 10.388 0.528849 -2.14376
upperback -6.43159 0.770354 2.12659
thorax -12.9726 0.739784 3.37195
lowerneck -12.4968 2.97089 -1.59449
upperneck 1.33868 4.10854 10.6836
head 2.17472 2.59747 3.72549
rclavicle -4.16951e-014 1.90833e-014
rhumerus -46.8986 -11.2206 -59.8244
rradius 9.41027
rwrist 7.7632
rhand -1.4159 18.433
rfingers 7.12502
rthumb 24.2335 -10.0557
lclavicle -4.16951e-014 1.90833e-014
lhumerus -67.5617 23.3151 44.5292
lradius 18.5785
lwrist -32.3042
lhand 3.02864 59.0537
lfingers 7.12502
lthumb -151.512 266.904
rfemur -59.988 -21.7483 24.4825
rtibia 103.87
rfoot 7.48557 -3.58233
rtoes -8.58248
lfemur -37.8924 9.99415 -21.9255
ltibia 39.0089
lfoot -17.9816 19.2579
ltoes 34.8478
368
root 13.1673 16.253 -7.61459 -160.702 32.8168 -163.354
lowerback 10.7112 0.609462 -2.00462
upperback -6.14366 0.88873 2.20293
thorax -12.8464 0.774918 3.35084
lowerneck -12.7352 2.86133 -1.74396
upperneck 1.08893 4.02075 10.7307
head 2.14032 2.56186 3.76244
rclavicle 2.67365e-014 -1.90833e-014
rhumerus -46.7524 -11.2268 -59.1687
rradius 9.79185
rwrist 8.15375
rhand -1.3747 17.1446
rfingers 7.12502
rthumb 24.273 -11.3388
lclavicle 2.67365e-014 -1.90833e-014
lhumerus -68.1923 23.4269 43.5571
lradius 18.109
lwrist -33.2801
lhand 3.42825 58.9751
lfingers 7.12502
lthumb -151.13 266.761
rfemur -61.9501 -21.9466 24.5429
rtibia 105.443
rfoot 6.2222 -3.09872
rtoes -11.8707
lfemur -37.4265 10.1158 -21.8455
ltibia 39.0669
lfoot -17.3803 18.6713
ltoes 32.8027
369
root 13.1882 16.2572 -7.66745 -161.495 31.5611 -163.544
lowerback 11.1877 0.653858 -2.09174
upperback -5.86033 0.923302 2.31184
thorax -12.8196 0.793821 3.51279
lowerneck -12.6404 2.74092 -2.06075
upperneck 0.537631 3.97385 10.7791
head 1.95724 2.52822 3.8151
rclavicle 1.39646e-014 2.54444e-014
rhumerus -46.4643 -10.9884 -58.2898
rradius 9.81226
rwrist 8.79417
rhand -1.79989 16.8541
rfingers 7.12502
rthumb 23.8653 -11.6832
lclavicle 1.39646e-014 2.54444e-014
lhumerus -68.9809 23.4117 42.3531
lradius 17.7989
lwrist -34.3747
lhand 4.08041 58.813
lfingers 7.12502
lthumb -150.508 266.491
rfemur -63.6067 -22.4992 24.3384
rtibia 106.962
rfoot 4.94735 -3.3068
rtoes -15.3149
lfemur -36.756 10.1921 -21.8972
ltibia 39.1565
lfoot -16.9785 17.9691
ltoes 30.2565
370
root 13.203 16.2449 -7.72043 -162.364 30.3774 -164.094
lowerback 11.6416 0.707639 -2.38551
upperback -5.63122 0.921647 2.30515
thorax -12.8404 0.808059 3.67308
lowerneck -12.3521 2.56903 -2.5241
upperneck -0.214834 3.90163 10.9808
head 1.68168 2.48051 3.93035
rclavicle -9.97899e-014 -2.54444e-014
rhumerus -45.9979 -10.5802 -57.2295
rradius 9.51172
rwrist 9.07813
rhand -3.29899 16.3592
rfingers 7.12502
rthumb 22.427 -12.3588
lclavicle -9.97899e-014 -2.54444e-014
lhumerus -69.8012 23.3212 40.8591
lradius 17.6936
lwrist -35.5016
lhand 4.66867 58.3363
lfingers 7.12502
lthumb -149.946 265.914
rfemur -65.6368 -23.2018 23.7722
rtibia 108.576
rfoot 4.04929 -3.38202
rtoes -13.7577
lfemur -36.175 10.1748 -22.3563
ltibia 39.3045
lfoot -16.8473 17.1341
ltoes 28.5912
